grf
version=1
nRows=7
nColumns=37
inDegrees=no
endheader
time	ground_force_1_vx	ground_force_1_vy	ground_force_1_vz	ground_force_1_px	ground_force_1_py	ground_force_1_pz	ground_moment_1_mx	ground_moment_1_my	ground_moment_1_mz	ground_force_2_vx	ground_force_2_vy	ground_force_2_vz	ground_force_2_px	ground_force_2_py	ground_force_2_pz	ground_moment_2_mx	ground_moment_2_my	ground_moment_2_mz	ground_force_3_vx	ground_force_3_vy	ground_force_3_vz	ground_force_3_px	ground_force_3_py	ground_force_3_pz	ground_moment_3_mx	ground_moment_3_my	ground_moment_3_mz	ground_force_4_vx	ground_force_4_vy	ground_force_4_vz	ground_force_4_px	ground_force_4_py	ground_force_4_pz	ground_moment_4_mx	ground_moment_4_my	ground_moment_4_mz
      2.05000000	      0.00000000	     -0.00000000	      0.00000000	      0.00000000	      0.00000000	      0.00000000	      0.00000000	      0.00000000	      0.00000000	      1.78877294	     36.11928558	   -372.20272827	   -280.57578295	  -1086.49881551	      0.00000000	      0.00000000	      0.00000000	   1549.39161897	     -2.57261611	    -38.33161141	   -396.07275391	   -273.60632234	   -726.54531228	      0.00000000	      0.00000000	     -0.00000000	  -2530.36631534	      0.00000000	     -0.00000000	      0.00000000	      0.00000000	      0.00000000	      0.00000000	      0.00000000	      0.00000000	      0.00000000
      2.06000000	      0.00000000	     -0.00000000	      0.00000000	      0.00000000	      0.00000000	      0.00000000	      0.00000000	      0.00000000	      0.00000000	      1.51657867	     36.24246597	   -370.41918945	   -278.53688646	  -1086.32342805	      0.00000000	     -0.00000000	      0.00000000	   1489.30427031	     -3.83158631	    -37.64198270	   -397.28179932	   -272.78537011	   -726.11436535	      0.00000000	      0.00000000	     -0.00000000	  -2425.05127127	      0.00000000	     -0.00000000	      0.00000000	      0.00000000	      0.00000000	      0.00000000	      0.00000000	      0.00000000	      0.00000000
      2.07000000	      0.00000000	     -0.00000000	      0.00000000	      0.00000000	      0.00000000	      0.00000000	      0.00000000	      0.00000000	      0.00000000	      0.64117223	     35.88047409	   -369.27139282	   -277.86404932	  -1086.81346092	      0.00000000	      0.00000000	      0.00000000	   1449.17680035	     -4.59184598	    -38.08767279	   -397.46755981	   -271.31552417	   -725.98461302	      0.00000000	      0.00000000	     -0.00000000	  -2564.65424216	      0.00000000	     -0.00000000	      0.00000000	      0.00000000	      0.00000000	      0.00000000	      0.00000000	      0.00000000	      0.00000000
      2.08000000	      0.00000000	     -0.00000000	      0.00000000	      0.00000000	      0.00000000	      0.00000000	      0.00000000	      0.00000000	      0.00000000	      0.32368794	     35.48414612	   -366.15692139	   -276.71039945	  -1086.99201349	      0.00000000	      0.00000000	      0.00000000	   1636.70916337	     -5.94362593	    -38.20988412	   -397.05145264	   -269.36702214	   -725.74246524	      0.00000000	     -0.00000000	     -0.00000000	  -2621.83884462	      0.00000000	     -0.00000000	      0.00000000	      0.00000000	      0.00000000	      0.00000000	      0.00000000	      0.00000000	      0.00000000
      2.09000000	      0.00000000	     -0.00000000	      0.00000000	      0.00000000	      0.00000000	      0.00000000	      0.00000000	      0.00000000	      0.00000000	     -0.26063824	     35.95241165	   -364.35150146	   -274.56917365	  -1087.49522785	      0.00000000	      0.00000000	      0.00000000	   1491.82084771	     -7.26879885	    -38.41447004	   -395.87243652	   -268.07488843	   -725.83804963	      0.00000000	      0.00000000	     -0.00000000	  -2660.73966764	      0.00000000	     -0.00000000	      0.00000000	      0.00000000	      0.00000000	      0.00000000	      0.00000000	      0.00000000	      0.00000000
      2.10000000	      0.00000000	     -0.00000000	      0.00000000	      0.00000000	      0.00000000	      0.00000000	      0.00000000	      0.00000000	      0.00000000	     -0.73755717	     35.53792191	   -360.01971436	   -273.75596734	  -1087.15483500	      0.00000000	      0.00000000	      0.00000000	   1286.44213903	     -8.79287587	    -39.30915374	   -395.32846069	   -266.55302465	   -724.93263773	      0.00000000	      0.00000000	     -0.00000000	  -2607.98666844	      0.00000000	     -0.00000000	      0.00000000	      0.00000000	      0.00000000	      0.00000000	      0.00000000	      0.00000000	      0.00000000
      2.11000000	      0.00000000	     -0.00000000	      0.00000000	      0.00000000	      0.00000000	      0.00000000	      0.00000000	      0.00000000	      0.00000000	     -0.72174966	     34.23413467	   -355.65222168	   -272.71793027	  -1087.80323102	      0.00000000	      0.00000000	      0.00000000	   1405.54414633	    -10.40221655	    -39.54516892	   -394.06298828	   -264.55715807	   -725.05204135	      0.00000000	      0.00000000	     -0.00000000	  -2564.23102885	      0.00000000	     -0.00000000	      0.00000000	      0.00000000	      0.00000000	      0.00000000	      0.00000000	      0.00000000	      0.00000000
